<?xml version="1.0" standalone="no"?><!DOCTYPE svg PUBLIC "-//W3C//DTD SVG 1.1//EN" "http://www.w3.org/Graphics/SVG/1.1/DTD/svg11.dtd"><svg t="1607307642296" class="icon" viewBox="0 0 1024 1024" version="1.1" xmlns="http://www.w3.org/2000/svg" p-id="4998" xmlns:xlink="http://www.w3.org/1999/xlink" width="200" height="200"><defs><style type="text/css"></style></defs><path d="M881.190523 358.498088l59.391492-27.902923c13.972963-6.577439 19.977027-23.224791 13.427232-37.171132-6.577439-13.972963-23.19817-19.977027-37.171133-13.427233l-65.53378 30.788232-13.693442-159.495736c0-36.871134-29.993697-66.863807-66.863808-66.863808H245.276849c-36.871134 0-66.891452 29.993697-66.781896 64.489418l-13.699586 160.571839-62.771338-29.490969c-13.864431-6.52215-30.567072-0.573376-37.171133 13.427233-6.549794 13.946342-0.545731 30.593694 13.427233 37.171132l59.300366 27.85992c-32.137713 2.527973-57.523925 29.394724-57.471707 60.482954L62.34233 693.517462c0 34.469099 28.028861 62.49796 62.470315 62.49796h20.905691v66.045723c0 39.6817 32.286176 71.967876 71.967875 71.967876h46.149583c39.6817 0 71.967876-32.286176 71.967876-71.967876v-66.045723H680.958485v66.045723c0 39.6817 32.286176 71.967876 71.967875 71.967876h46.177228c39.6817 0 71.967876-32.286176 71.967876-71.967876v-66.045723h22.324796c34.469099 0 62.49796-28.028861 62.44267-64.298974l-17.657926-270.977395c0-32.612795-25.094405-59.442686-56.990481-62.240965z m-635.913674-218.179724h525.471259c6.058329 0 10.970931 4.912602 11.080487 13.345322l17.478747 204.577407h-582.600989l17.572944-206.951797c-0.001024-6.058329 4.939223-10.970931 10.997552-10.970932z m34.632921 681.741757c0 8.869919-7.205081 16.075-16.074999 16.075h-46.149584c-8.869919 0-16.075-7.205081-16.074999-16.075v-66.045723h78.299582v66.045723z m535.268818 0c0 8.869919-7.205081 16.075-16.075 16.075h-46.177228c-8.869919 0-16.075-7.205081-16.074999-16.075v-66.045723h78.326203v66.045723z m78.216648-121.938599H124.812645c-3.629673 0-6.577439-2.974387-6.631705-4.803046l17.766458-274.579423c0-3.629673 2.947766-6.605084 6.577439-6.605084h733.15923c3.629673 0 6.60406 2.974387 6.659351 8.406099l17.657926 270.977394c-0.001024 3.629673-2.976435 6.60406-6.606108 6.60406z" fill="#373635" p-id="4999"></path><path d="M285.831923 471.96506c-53.108932 0-96.339418 43.229462-96.339418 96.339418 0 53.108932 43.229462 96.339418 96.339418 96.339418 53.108932 0 96.339418-43.229462 96.339418-96.339418s-43.229462-96.339418-96.339418-96.339418z m0 136.784936c-22.297151 0-40.445518-18.148367-40.445518-40.445518s18.148367-40.446542 40.445518-40.446542 40.446542 18.148367 40.446542 40.446542c0 22.297151-18.149391 40.445518-40.446542 40.445518zM723.806038 471.96506c-53.136577 0-96.366039 43.229462-96.366039 96.339418 0 53.108932 43.229462 96.339418 96.366039 96.339418 53.108932 0 96.339418-43.229462 96.339418-96.339418s-43.230486-96.339418-96.339418-96.339418z m0 136.784936c-22.324796 0-40.473163-18.148367-40.473163-40.445518s18.148367-40.446542 40.473163-40.446542c22.297151 0 40.446542 18.148367 40.446542 40.446542 0 22.297151-18.149391 40.445518-40.446542 40.445518z" fill="#373635" p-id="5000"></path></svg>